<svg width="1280" height="720" xmlns="http://www.w3.org/2000/svg" xmlns:xlink="http://www.w3.org/1999/xlink" overflow="hidden"><defs><filter id="fx0" x="-10%" y="-10%" width="120%" height="120%" filterUnits="userSpaceOnUse" primitiveUnits="userSpaceOnUse"><feComponentTransfer color-interpolation-filters="sRGB"><feFuncR type="discrete" tableValues="0.74902 0.74902"/><feFuncG type="discrete" tableValues="0.74902 0.74902"/><feFuncB type="discrete" tableValues="0.74902 0.74902"/><feFuncA type="linear" slope="0.4" intercept="0"/></feComponentTransfer><feGaussianBlur stdDeviation="6.66667 6.66667"/></filter><filter id="fx1" x="-10%" y="-10%" width="120%" height="120%" filterUnits="userSpaceOnUse" primitiveUnits="userSpaceOnUse"><feComponentTransfer color-interpolation-filters="sRGB"><feFuncR type="discrete" tableValues="0.74902 0.74902"/><feFuncG type="discrete" tableValues="0.74902 0.74902"/><feFuncB type="discrete" tableValues="0.74902 0.74902"/><feFuncA type="linear" slope="0.4" intercept="0"/></feComponentTransfer><feGaussianBlur stdDeviation="6.66667 6.66667"/></filter><filter id="fx2" x="-10%" y="-10%" width="120%" height="120%" filterUnits="userSpaceOnUse" primitiveUnits="userSpaceOnUse"><feComponentTransfer color-interpolation-filters="sRGB"><feFuncR type="discrete" tableValues="0.74902 0.74902"/><feFuncG type="discrete" tableValues="0.74902 0.74902"/><feFuncB type="discrete" tableValues="0.74902 0.74902"/><feFuncA type="linear" slope="0.4" intercept="0"/></feComponentTransfer><feGaussianBlur stdDeviation="6.66667 6.66667"/></filter><filter id="fx3" x="-10%" y="-10%" width="120%" height="120%" filterUnits="userSpaceOnUse" primitiveUnits="userSpaceOnUse"><feComponentTransfer color-interpolation-filters="sRGB"><feFuncR type="discrete" tableValues="0.74902 0.74902"/><feFuncG type="discrete" tableValues="0.74902 0.74902"/><feFuncB type="discrete" tableValues="0.74902 0.74902"/><feFuncA type="linear" slope="0.4" intercept="0"/></feComponentTransfer><feGaussianBlur stdDeviation="6.66667 6.66667"/></filter><filter id="fx4" x="-10%" y="-10%" width="120%" height="120%" filterUnits="userSpaceOnUse" primitiveUnits="userSpaceOnUse"><feComponentTransfer color-interpolation-filters="sRGB"><feFuncR type="discrete" tableValues="0.74902 0.74902"/><feFuncG type="discrete" tableValues="0.74902 0.74902"/><feFuncB type="discrete" tableValues="0.74902 0.74902"/><feFuncA type="linear" slope="0.4" intercept="0"/></feComponentTransfer><feGaussianBlur stdDeviation="6.66667 6.66667"/></filter><clipPath id="clip5"><rect x="0" y="0" width="1280" height="720"/></clipPath><linearGradient x1="573" y1="46" x2="573" y2="348" gradientUnits="userSpaceOnUse" spreadMethod="reflect" id="fill6"><stop offset="0" stop-color="#EDEEF3"/><stop offset="0.0588235" stop-color="#EEEFF4"/><stop offset="0.117647" stop-color="#F0F1F5"/><stop offset="0.176471" stop-color="#F2F3F6"/><stop offset="0.235294" stop-color="#F4F4F7"/><stop offset="0.294118" stop-color="#F5F6F8"/><stop offset="0.352941" stop-color="#F7F7F9"/><stop offset="0.411765" stop-color="#F8F8FA"/><stop offset="0.470588" stop-color="#F9F9FB"/><stop offset="0.529412" stop-color="#FAFAFC"/><stop offset="0.588235" stop-color="#FBFBFC"/><stop offset="0.647059" stop-color="#FCFCFD"/><stop offset="0.705882" stop-color="#FDFDFD"/><stop offset="0.764706" stop-color="#FDFDFE"/><stop offset="0.823529" stop-color="#FEFEFE"/><stop offset="0.882353" stop-color="#FEFEFE"/><stop offset="0.941176" stop-color="#FEFEFE"/><stop offset="1" stop-color="#FFFFFF"/></linearGradient><linearGradient x1="1022" y1="46" x2="1022" y2="348" gradientUnits="userSpaceOnUse" spreadMethod="reflect" id="fill7"><stop offset="0" stop-color="#EDEEF3"/><stop offset="0.0588235" stop-color="#EEEFF4"/><stop offset="0.117647" stop-color="#F0F1F5"/><stop offset="0.176471" stop-color="#F2F3F6"/><stop offset="0.235294" stop-color="#F4F4F7"/><stop offset="0.294118" stop-color="#F5F6F8"/><stop offset="0.352941" stop-color="#F7F7F9"/><stop offset="0.411765" stop-color="#F8F8FA"/><stop offset="0.470588" stop-color="#F9F9FB"/><stop offset="0.529412" stop-color="#FAFAFC"/><stop offset="0.588235" stop-color="#FBFBFC"/><stop offset="0.647059" stop-color="#FCFCFD"/><stop offset="0.705882" stop-color="#FDFDFD"/><stop offset="0.764706" stop-color="#FDFDFE"/><stop offset="0.823529" stop-color="#FEFEFE"/><stop offset="0.882353" stop-color="#FEFEFE"/><stop offset="0.941176" stop-color="#FEFEFE"/><stop offset="1" stop-color="#FFFFFF"/></linearGradient><linearGradient x1="573" y1="382" x2="573" y2="684" gradientUnits="userSpaceOnUse" spreadMethod="reflect" id="fill8"><stop offset="0" stop-color="#EDEEF3"/><stop offset="0.0588235" stop-color="#EEEFF4"/><stop offset="0.117647" stop-color="#F0F1F5"/><stop offset="0.176471" stop-color="#F2F3F6"/><stop offset="0.235294" stop-color="#F4F4F7"/><stop offset="0.294118" stop-color="#F5F6F8"/><stop offset="0.352941" stop-color="#F7F7F9"/><stop offset="0.411765" stop-color="#F8F8FA"/><stop offset="0.470588" stop-color="#F9F9FB"/><stop offset="0.529412" stop-color="#FAFAFC"/><stop offset="0.588235" stop-color="#FBFBFC"/><stop offset="0.647059" stop-color="#FCFCFD"/><stop offset="0.705882" stop-color="#FDFDFD"/><stop offset="0.764706" stop-color="#FDFDFE"/><stop offset="0.823529" stop-color="#FEFEFE"/><stop offset="0.882353" stop-color="#FEFEFE"/><stop offset="0.941176" stop-color="#FEFEFE"/><stop offset="1" stop-color="#FFFFFF"/></linearGradient><linearGradient x1="1022" y1="382" x2="1022" y2="684" gradientUnits="userSpaceOnUse" spreadMethod="reflect" id="fill9"><stop offset="0" stop-color="#EDEEF3"/><stop offset="0.0588235" stop-color="#EEEFF4"/><stop offset="0.117647" stop-color="#F0F1F5"/><stop offset="0.176471" stop-color="#F2F3F6"/><stop offset="0.235294" stop-color="#F4F4F7"/><stop offset="0.294118" stop-color="#F5F6F8"/><stop offset="0.352941" stop-color="#F7F7F9"/><stop offset="0.411765" stop-color="#F8F8FA"/><stop offset="0.470588" stop-color="#F9F9FB"/><stop offset="0.529412" stop-color="#FAFAFC"/><stop offset="0.588235" stop-color="#FBFBFC"/><stop offset="0.647059" stop-color="#FCFCFD"/><stop offset="0.705882" stop-color="#FDFDFD"/><stop offset="0.764706" stop-color="#FDFDFE"/><stop offset="0.823529" stop-color="#FEFEFE"/><stop offset="0.882353" stop-color="#FEFEFE"/><stop offset="0.941176" stop-color="#FEFEFE"/><stop offset="1" stop-color="#FFFFFF"/></linearGradient><linearGradient x1="-22.2698" y1="278.236" x2="424.27" y2="440.764" gradientUnits="userSpaceOnUse" spreadMethod="reflect" id="fill10"><stop offset="0" stop-color="#7B00AC"/><stop offset="0.95" stop-color="#FDA9A9"/><stop offset="1" stop-color="#FDA9A9"/></linearGradient></defs><g clip-path="url(#clip5)"><rect x="0" y="0" width="1280" height="720" fill="#FFFFFC"/><path d="M79 48.1565C79 34.8153 89.8152 24 103.156 24L1238.84 24C1252.18 24 1263 34.8153 1263 48.1565L1263 681.843C1263 695.185 1252.18 706 1238.84 706L103.156 706C89.8152 706 79 695.185 79 681.843Z" fill="#F3F4F7" fill-rule="evenodd"/><g filter="url(#fx0)" transform="translate(358 39)"><g><path d="M21.1422 71.4766C21.1422 43.6776 43.6777 21.1421 71.4766 21.1421L386.808 21.1421C414.607 21.1421 437.142 43.6776 437.142 71.4766L437.142 272.808C437.142 300.607 414.607 323.142 386.808 323.142L71.4766 323.142C43.6777 323.142 21.1422 300.607 21.1422 272.808Z" fill="#FF0000" fill-rule="evenodd"/></g></g><path d="M365 96.3345C365 68.5355 387.535 46 415.334 46L730.666 46C758.464 46 781 68.5355 781 96.3345L781 297.666C781 325.464 758.464 348 730.666 348L415.334 348C387.535 348 365 325.464 365 297.666Z" fill="url(#fill6)" fill-rule="evenodd"/><g filter="url(#fx1)" transform="translate(807 39)"><g><path d="M21.1422 71.4766C21.1422 43.6776 43.6777 21.1421 71.4766 21.1421L386.808 21.1421C414.607 21.1421 437.142 43.6776 437.142 71.4766L437.142 272.808C437.142 300.607 414.607 323.142 386.808 323.142L71.4766 323.142C43.6777 323.142 21.1422 300.607 21.1422 272.808Z" fill="#FF0000" fill-rule="evenodd"/></g></g><path d="M814 96.3345C814 68.5355 836.536 46 864.334 46L1179.67 46C1207.46 46 1230 68.5355 1230 96.3345L1230 297.666C1230 325.464 1207.46 348 1179.67 348L864.334 348C836.536 348 814 325.464 814 297.666Z" fill="url(#fill7)" fill-rule="evenodd"/><g filter="url(#fx2)" transform="translate(358 375)"><g><path d="M21.1422 71.4766C21.1422 43.6777 43.6777 21.1422 71.4766 21.1422L386.808 21.1422C414.607 21.1422 437.142 43.6777 437.142 71.4766L437.142 272.808C437.142 300.607 414.607 323.142 386.808 323.142L71.4766 323.142C43.6777 323.142 21.1422 300.607 21.1422 272.808Z" fill="#FF0000" fill-rule="evenodd"/></g></g><path d="M365 432.334C365 404.536 387.535 382 415.334 382L730.666 382C758.464 382 781 404.536 781 432.334L781 633.666C781 661.464 758.464 684 730.666 684L415.334 684C387.535 684 365 661.464 365 633.666Z" fill="url(#fill8)" fill-rule="evenodd"/><g filter="url(#fx3)" transform="translate(807 375)"><g><path d="M21.1422 71.4766C21.1422 43.6777 43.6777 21.1422 71.4766 21.1422L386.808 21.1422C414.607 21.1422 437.142 43.6777 437.142 71.4766L437.142 272.808C437.142 300.607 414.607 323.142 386.808 323.142L71.4766 323.142C43.6777 323.142 21.1422 300.607 21.1422 272.808Z" fill="#FF0000" fill-rule="evenodd"/></g></g><path d="M814 432.334C814 404.536 836.536 382 864.334 382L1179.67 382C1207.46 382 1230 404.536 1230 432.334L1230 633.666C1230 661.464 1207.46 684 1179.67 684L864.334 684C836.536 684 814 661.464 814 633.666Z" fill="url(#fill9)" fill-rule="evenodd"/><g filter="url(#fx4)" transform="translate(72 -7)"><g><path d="M21.1421 61.81C21.1421 39.3498 39.3497 21.1421 61.81 21.1421L224.474 21.1421C246.935 21.1421 265.142 39.3498 265.142 61.81L265.142 699.474C265.142 721.935 246.935 740.142 224.474 740.142L61.81 740.142C39.3497 740.142 21.1421 721.935 21.1421 699.474Z" fill="#FF0000" fill-rule="evenodd"/></g></g><path d="M79 40.6678C79 18.2076 97.2076-5.72114e-15 119.668 0L282.332 0C304.792-1.14423e-14 323 18.2076 323 40.6678L323 678.332C323 700.792 304.792 719 282.332 719L119.668 719C97.2076 719 79 700.792 79 678.332Z" fill="url(#fill10)" fill-rule="evenodd"/></g></svg>