<svg width="1280" height="720" xmlns="http://www.w3.org/2000/svg" xmlns:xlink="http://www.w3.org/1999/xlink" overflow="hidden"><defs><filter id="fx0" x="-10%" y="-10%" width="120%" height="120%" filterUnits="userSpaceOnUse" primitiveUnits="userSpaceOnUse"><feComponentTransfer color-interpolation-filters="sRGB"><feFuncR type="discrete" tableValues="0.74902 0.74902"/><feFuncG type="discrete" tableValues="0.74902 0.74902"/><feFuncB type="discrete" tableValues="0.74902 0.74902"/><feFuncA type="linear" slope="0.4" intercept="0"/></feComponentTransfer><feGaussianBlur stdDeviation="6.66667 6.66667"/></filter><filter id="fx1" x="-10%" y="-10%" width="120%" height="120%" filterUnits="userSpaceOnUse" primitiveUnits="userSpaceOnUse"><feComponentTransfer color-interpolation-filters="sRGB"><feFuncR type="discrete" tableValues="0.74902 0.74902"/><feFuncG type="discrete" tableValues="0.74902 0.74902"/><feFuncB type="discrete" tableValues="0.74902 0.74902"/><feFuncA type="linear" slope="0.4" intercept="0"/></feComponentTransfer><feGaussianBlur stdDeviation="6.66667 6.66667"/></filter><filter id="fx2" x="-10%" y="-10%" width="120%" height="120%" filterUnits="userSpaceOnUse" primitiveUnits="userSpaceOnUse"><feComponentTransfer color-interpolation-filters="sRGB"><feFuncR type="discrete" tableValues="0.74902 0.74902"/><feFuncG type="discrete" tableValues="0.74902 0.74902"/><feFuncB type="discrete" tableValues="0.74902 0.74902"/><feFuncA type="linear" slope="0.4" intercept="0"/></feComponentTransfer><feGaussianBlur stdDeviation="6.66667 6.66667"/></filter><filter id="fx3" x="-10%" y="-10%" width="120%" height="120%" filterUnits="userSpaceOnUse" primitiveUnits="userSpaceOnUse"><feComponentTransfer color-interpolation-filters="sRGB"><feFuncR type="discrete" tableValues="0.74902 0.74902"/><feFuncG type="discrete" tableValues="0.74902 0.74902"/><feFuncB type="discrete" tableValues="0.74902 0.74902"/><feFuncA type="linear" slope="0.4" intercept="0"/></feComponentTransfer><feGaussianBlur stdDeviation="6.66667 6.66667"/></filter><filter id="fx4" x="-10%" y="-10%" width="120%" height="120%" filterUnits="userSpaceOnUse" primitiveUnits="userSpaceOnUse"><feComponentTransfer color-interpolation-filters="sRGB"><feFuncR type="discrete" tableValues="0.74902 0.74902"/><feFuncG type="discrete" tableValues="0.74902 0.74902"/><feFuncB type="discrete" tableValues="0.74902 0.74902"/><feFuncA type="linear" slope="0.4" intercept="0"/></feComponentTransfer><feGaussianBlur stdDeviation="6.66667 6.66667"/></filter><filter id="fx5" x="-10%" y="-10%" width="120%" height="120%" filterUnits="userSpaceOnUse" primitiveUnits="userSpaceOnUse"><feComponentTransfer color-interpolation-filters="sRGB"><feFuncR type="discrete" tableValues="0.74902 0.74902"/><feFuncG type="discrete" tableValues="0.74902 0.74902"/><feFuncB type="discrete" tableValues="0.74902 0.74902"/><feFuncA type="linear" slope="0.4" intercept="0"/></feComponentTransfer><feGaussianBlur stdDeviation="6.66667 6.66667"/></filter><filter id="fx6" x="-10%" y="-10%" width="120%" height="120%" filterUnits="userSpaceOnUse" primitiveUnits="userSpaceOnUse"><feComponentTransfer color-interpolation-filters="sRGB"><feFuncR type="discrete" tableValues="0.74902 0.74902"/><feFuncG type="discrete" tableValues="0.74902 0.74902"/><feFuncB type="discrete" tableValues="0.74902 0.74902"/><feFuncA type="linear" slope="0.4" intercept="0"/></feComponentTransfer><feGaussianBlur stdDeviation="6.66667 6.66667"/></filter><filter id="fx7" x="-10%" y="-10%" width="120%" height="120%" filterUnits="userSpaceOnUse" primitiveUnits="userSpaceOnUse"><feComponentTransfer color-interpolation-filters="sRGB"><feFuncR type="discrete" tableValues="0.74902 0.74902"/><feFuncG type="discrete" tableValues="0.74902 0.74902"/><feFuncB type="discrete" tableValues="0.74902 0.74902"/><feFuncA type="linear" slope="0.4" intercept="0"/></feComponentTransfer><feGaussianBlur stdDeviation="6.66667 6.66667"/></filter><clipPath id="clip8"><rect x="0" y="0" width="1280" height="720"/></clipPath><linearGradient x1="553" y1="134" x2="553" y2="391" gradientUnits="userSpaceOnUse" spreadMethod="reflect" id="fill9"><stop offset="0" stop-color="#EDEEF3"/><stop offset="0.0588235" stop-color="#EEEFF4"/><stop offset="0.117647" stop-color="#F0F1F5"/><stop offset="0.176471" stop-color="#F2F3F6"/><stop offset="0.235294" stop-color="#F4F4F7"/><stop offset="0.294118" stop-color="#F5F6F8"/><stop offset="0.352941" stop-color="#F7F7F9"/><stop offset="0.411765" stop-color="#F8F8FA"/><stop offset="0.470588" stop-color="#F9F9FB"/><stop offset="0.529412" stop-color="#FAFAFC"/><stop offset="0.588235" stop-color="#FBFBFC"/><stop offset="0.647059" stop-color="#FCFCFD"/><stop offset="0.705882" stop-color="#FDFDFD"/><stop offset="0.764706" stop-color="#FDFDFE"/><stop offset="0.823529" stop-color="#FEFEFE"/><stop offset="0.882353" stop-color="#FEFEFE"/><stop offset="0.941176" stop-color="#FEFEFE"/><stop offset="1" stop-color="#FFFFFF"/></linearGradient><linearGradient x1="983.5" y1="134" x2="983.5" y2="391.004" gradientUnits="userSpaceOnUse" spreadMethod="reflect" id="fill10"><stop offset="0" stop-color="#EDEEF3"/><stop offset="0.0588235" stop-color="#EEEFF4"/><stop offset="0.117647" stop-color="#F0F1F5"/><stop offset="0.176471" stop-color="#F2F3F6"/><stop offset="0.235294" stop-color="#F4F4F7"/><stop offset="0.294118" stop-color="#F5F6F8"/><stop offset="0.352941" stop-color="#F7F7F9"/><stop offset="0.411765" stop-color="#F8F8FA"/><stop offset="0.470588" stop-color="#F9F9FB"/><stop offset="0.529412" stop-color="#FAFAFC"/><stop offset="0.588235" stop-color="#FBFBFC"/><stop offset="0.647059" stop-color="#FCFCFD"/><stop offset="0.705882" stop-color="#FDFDFD"/><stop offset="0.764706" stop-color="#FDFDFE"/><stop offset="0.823529" stop-color="#FEFEFE"/><stop offset="0.882353" stop-color="#FEFEFE"/><stop offset="0.941176" stop-color="#FEFEFE"/><stop offset="1" stop-color="#FFFFFF"/></linearGradient><linearGradient x1="553" y1="403" x2="553" y2="660" gradientUnits="userSpaceOnUse" spreadMethod="reflect" id="fill11"><stop offset="0" stop-color="#EDEEF3"/><stop offset="0.0588235" stop-color="#EEEFF4"/><stop offset="0.117647" stop-color="#F0F1F5"/><stop offset="0.176471" stop-color="#F2F3F6"/><stop offset="0.235294" stop-color="#F4F4F7"/><stop offset="0.294118" stop-color="#F5F6F8"/><stop offset="0.352941" stop-color="#F7F7F9"/><stop offset="0.411765" stop-color="#F8F8FA"/><stop offset="0.470588" stop-color="#F9F9FB"/><stop offset="0.529412" stop-color="#FAFAFC"/><stop offset="0.588235" stop-color="#FBFBFC"/><stop offset="0.647059" stop-color="#FCFCFD"/><stop offset="0.705882" stop-color="#FDFDFD"/><stop offset="0.764706" stop-color="#FDFDFE"/><stop offset="0.823529" stop-color="#FEFEFE"/><stop offset="0.882353" stop-color="#FEFEFE"/><stop offset="0.941176" stop-color="#FEFEFE"/><stop offset="1" stop-color="#FFFFFF"/></linearGradient><linearGradient x1="983.5" y1="403" x2="983.5" y2="660.004" gradientUnits="userSpaceOnUse" spreadMethod="reflect" id="fill12"><stop offset="0" stop-color="#EDEEF3"/><stop offset="0.0588235" stop-color="#EEEFF4"/><stop offset="0.117647" stop-color="#F0F1F5"/><stop offset="0.176471" stop-color="#F2F3F6"/><stop offset="0.235294" stop-color="#F4F4F7"/><stop offset="0.294118" stop-color="#F5F6F8"/><stop offset="0.352941" stop-color="#F7F7F9"/><stop offset="0.411765" stop-color="#F8F8FA"/><stop offset="0.470588" stop-color="#F9F9FB"/><stop offset="0.529412" stop-color="#FAFAFC"/><stop offset="0.588235" stop-color="#FBFBFC"/><stop offset="0.647059" stop-color="#FCFCFD"/><stop offset="0.705882" stop-color="#FDFDFD"/><stop offset="0.764706" stop-color="#FDFDFE"/><stop offset="0.823529" stop-color="#FEFEFE"/><stop offset="0.882353" stop-color="#FEFEFE"/><stop offset="0.941176" stop-color="#FEFEFE"/><stop offset="1" stop-color="#FFFFFF"/></linearGradient><linearGradient x1="-23.0886" y1="280.486" x2="411.089" y2="438.514" gradientUnits="userSpaceOnUse" spreadMethod="reflect" id="fill13"><stop offset="0" stop-color="#7B00AC"/><stop offset="0.95" stop-color="#FDA9A9"/><stop offset="1" stop-color="#FDA9A9"/></linearGradient><linearGradient x1="192.5" y1="331" x2="192.5" y2="463" gradientUnits="userSpaceOnUse" spreadMethod="reflect" id="fill14"><stop offset="0" stop-color="#EDEEF3"/><stop offset="0.0588235" stop-color="#EEEFF4"/><stop offset="0.117647" stop-color="#F0F1F5"/><stop offset="0.176471" stop-color="#F2F3F6"/><stop offset="0.235294" stop-color="#F4F4F7"/><stop offset="0.294118" stop-color="#F5F6F8"/><stop offset="0.352941" stop-color="#F7F7F9"/><stop offset="0.411765" stop-color="#F8F8FA"/><stop offset="0.470588" stop-color="#F9F9FB"/><stop offset="0.529412" stop-color="#FAFAFC"/><stop offset="0.588235" stop-color="#FBFBFC"/><stop offset="0.647059" stop-color="#FCFCFD"/><stop offset="0.705882" stop-color="#FDFDFD"/><stop offset="0.764706" stop-color="#FDFDFE"/><stop offset="0.823529" stop-color="#FEFEFE"/><stop offset="0.882353" stop-color="#FEFEFE"/><stop offset="0.941176" stop-color="#FEFEFE"/><stop offset="1" stop-color="#FFFFFF"/></linearGradient><linearGradient x1="192.5" y1="528" x2="192.5" y2="660" gradientUnits="userSpaceOnUse" spreadMethod="reflect" id="fill15"><stop offset="0" stop-color="#EDEEF3"/><stop offset="0.0588235" stop-color="#EEEFF4"/><stop offset="0.117647" stop-color="#F0F1F5"/><stop offset="0.176471" stop-color="#F2F3F6"/><stop offset="0.235294" stop-color="#F4F4F7"/><stop offset="0.294118" stop-color="#F5F6F8"/><stop offset="0.352941" stop-color="#F7F7F9"/><stop offset="0.411765" stop-color="#F8F8FA"/><stop offset="0.470588" stop-color="#F9F9FB"/><stop offset="0.529412" stop-color="#FAFAFC"/><stop offset="0.588235" stop-color="#FBFBFC"/><stop offset="0.647059" stop-color="#FCFCFD"/><stop offset="0.705882" stop-color="#FDFDFD"/><stop offset="0.764706" stop-color="#FDFDFE"/><stop offset="0.823529" stop-color="#FEFEFE"/><stop offset="0.882353" stop-color="#FEFEFE"/><stop offset="0.941176" stop-color="#FEFEFE"/><stop offset="1" stop-color="#FFFFFF"/></linearGradient><linearGradient x1="192.5" y1="134" x2="192.5" y2="267" gradientUnits="userSpaceOnUse" spreadMethod="reflect" id="fill16"><stop offset="0" stop-color="#EDEEF3"/><stop offset="0.0588235" stop-color="#EEEFF4"/><stop offset="0.117647" stop-color="#F0F1F5"/><stop offset="0.176471" stop-color="#F2F3F6"/><stop offset="0.235294" stop-color="#F4F4F7"/><stop offset="0.294118" stop-color="#F5F6F8"/><stop offset="0.352941" stop-color="#F7F7F9"/><stop offset="0.411765" stop-color="#F8F8FA"/><stop offset="0.470588" stop-color="#F9F9FB"/><stop offset="0.529412" stop-color="#FAFAFC"/><stop offset="0.588235" stop-color="#FBFBFC"/><stop offset="0.647059" stop-color="#FCFCFD"/><stop offset="0.705882" stop-color="#FDFDFD"/><stop offset="0.764706" stop-color="#FDFDFE"/><stop offset="0.823529" stop-color="#FEFEFE"/><stop offset="0.882353" stop-color="#FEFEFE"/><stop offset="0.941176" stop-color="#FEFEFE"/><stop offset="1" stop-color="#FFFFFF"/></linearGradient></defs><g clip-path="url(#clip8)"><rect x="0" y="0" width="1280" height="720" fill="#FFFFFC"/><path d="M79 49.661C79 36.5934 89.5934 26 102.661 26L1189.34 26C1202.41 26 1213 36.5934 1213 49.661L1213 670.339C1213 683.407 1202.41 694 1189.34 694L102.661 694C89.5934 694 79 683.407 79 670.339Z" fill="#F3F4F7" fill-rule="evenodd"/><g filter="url(#fx0)" transform="translate(342 127)"><g><path d="M21.1422 63.9764C21.1422 40.3197 40.3197 21.1421 63.9763 21.1421L386.308 21.1421C409.965 21.1421 429.142 40.3197 429.142 63.9764L429.142 235.308C429.142 258.965 409.965 278.142 386.308 278.142L63.9763 278.142C40.3197 278.142 21.1422 258.965 21.1422 235.308Z" fill="#FF0000" fill-rule="evenodd"/></g></g><path d="M349 176.834C349 153.178 368.178 134 391.834 134L714.166 134C737.823 134 757 153.178 757 176.834L757 348.166C757 371.822 737.823 391 714.166 391L391.834 391C368.178 391 349 371.822 349 348.166Z" fill="url(#fill9)" fill-rule="evenodd"/><g filter="url(#fx1)" transform="translate(773 127)"><g><path d="M21.1422 63.9769C21.1422 40.3199 40.3199 21.1421 63.9769 21.1421L385.307 21.1421C408.964 21.1421 428.142 40.3199 428.142 63.9769L428.142 235.312C428.142 258.969 408.964 278.147 385.307 278.147L63.9769 278.147C40.3199 278.147 21.1422 258.969 21.1422 235.312Z" fill="#FF0000" fill-rule="evenodd"/></g></g><path d="M780 176.835C780 153.178 799.178 134 822.835 134L1144.17 134C1167.82 134 1187 153.178 1187 176.835L1187 348.17C1187 371.827 1167.82 391.004 1144.17 391.004L822.835 391.004C799.178 391.004 780 371.827 780 348.17Z" fill="url(#fill10)" fill-rule="evenodd"/><g filter="url(#fx2)" transform="translate(342 396)"><g><path d="M21.1422 63.9764C21.1422 40.3197 40.3197 21.1422 63.9763 21.1422L386.308 21.1422C409.965 21.1422 429.142 40.3197 429.142 63.9764L429.142 235.308C429.142 258.965 409.965 278.142 386.308 278.142L63.9763 278.142C40.3197 278.142 21.1422 258.965 21.1422 235.308Z" fill="#FF0000" fill-rule="evenodd"/></g></g><path d="M349 445.834C349 422.178 368.178 403 391.834 403L714.166 403C737.823 403 757 422.178 757 445.834L757 617.166C757 640.822 737.823 660 714.166 660L391.834 660C368.178 660 349 640.822 349 617.166Z" fill="url(#fill11)" fill-rule="evenodd"/><g filter="url(#fx3)" transform="translate(773 396)"><g><path d="M21.1422 63.9769C21.1422 40.3199 40.3199 21.1422 63.9769 21.1422L385.307 21.1422C408.964 21.1422 428.142 40.3199 428.142 63.9769L428.142 235.312C428.142 258.969 408.964 278.147 385.307 278.147L63.9769 278.147C40.3199 278.147 21.1422 258.969 21.1422 235.312Z" fill="#FF0000" fill-rule="evenodd"/></g></g><path d="M780 445.835C780 422.178 799.178 403 822.835 403L1144.17 403C1167.82 403 1187 422.178 1187 445.835L1187 617.17C1187 640.827 1167.82 660.004 1144.17 660.004L822.835 660.004C799.178 660.004 780 640.827 780 617.17Z" fill="url(#fill12)" fill-rule="evenodd"/><g filter="url(#fx4)" transform="translate(72 -7)"><g><path d="M21.1421 59.4762C21.1421 38.3049 38.3049 21.1421 59.4763 21.1421L212.808 21.1421C233.979 21.1421 251.142 38.3049 251.142 59.4762L251.142 701.808C251.142 722.979 233.979 740.142 212.808 740.142L59.4763 740.142C38.3049 740.142 21.1421 722.979 21.1421 701.808Z" fill="#FF0000" fill-rule="evenodd"/></g></g><path d="M79 38.3341C79 17.1628 96.1628-1.14423e-14 117.334-1.14423e-14L270.666 0C291.837-5.72114e-15 309 17.1628 309 38.3341L309 680.666C309 701.837 291.837 719 270.666 719L117.334 719C96.1628 719 79 701.837 79 680.666Z" fill="url(#fill13)" fill-rule="evenodd"/><g filter="url(#fx5)" transform="translate(91 324)"><g><path d="M21.1421 43.1426C21.1421 30.9921 30.992 21.1422 43.1425 21.1422L188.142 21.1422C200.292 21.1422 210.142 30.9921 210.142 43.1426L210.142 131.142C210.142 143.292 200.292 153.142 188.142 153.142L43.1425 153.142C30.992 153.142 21.1421 143.292 21.1421 131.142Z" fill="#FF0000" fill-rule="evenodd"/></g></g><path d="M98 353C98 340.85 107.85 331 120 331L265 331C277.15 331 287 340.85 287 353L287 441C287 453.15 277.15 463 265 463L120 463C107.85 463 98 453.15 98 441Z" fill="url(#fill14)" fill-rule="evenodd"/><g filter="url(#fx6)" transform="translate(91 521)"><g><path d="M21.1421 43.1426C21.1421 30.9921 30.992 21.1422 43.1425 21.1422L188.142 21.1422C200.292 21.1422 210.142 30.9921 210.142 43.1426L210.142 131.142C210.142 143.292 200.292 153.142 188.142 153.142L43.1425 153.142C30.992 153.142 21.1421 143.292 21.1421 131.142Z" fill="#FF0000" fill-rule="evenodd"/></g></g><path d="M98 550C98 537.85 107.85 528 120 528L265 528C277.15 528 287 537.85 287 550L287 638C287 650.15 277.15 660 265 660L120 660C107.85 660 98 650.15 98 638Z" fill="url(#fill15)" fill-rule="evenodd"/><g filter="url(#fx7)" transform="translate(91 127)"><g><path d="M21.1421 43.3091C21.1421 31.0666 31.0666 21.1421 43.3091 21.1421L187.975 21.1421C200.218 21.1421 210.142 31.0666 210.142 43.3091L210.142 131.975C210.142 144.218 200.218 154.142 187.975 154.142L43.3091 154.142C31.0666 154.142 21.1421 144.218 21.1421 131.975Z" fill="#FF0000" fill-rule="evenodd"/></g></g><path d="M98 156.167C98 143.925 107.924 134 120.167 134L264.833 134C277.076 134 287 143.925 287 156.167L287 244.833C287 257.076 277.076 267 264.833 267L120.167 267C107.924 267 98 257.076 98 244.833Z" fill="url(#fill16)" fill-rule="evenodd"/></g></svg>